<svg xmlns="http://www.w3.org/2000/svg" viewBox="0 0 64 64"><path d="M31.998 10C19.85 10 10 20.099 10 32.557c0 9.966 6.303 18.42 15.046 21.404 1.1.206 1.501-.49 1.501-1.089 0-.534-.018-1.953-.029-3.835-6.119 1.363-7.411-3.024-7.411-3.024-1.001-2.605-2.443-3.299-2.443-3.299-1.998-1.4.151-1.372.151-1.372 2.208.16 3.37 2.325 3.37 2.325 1.962 3.447 5.15 2.451 6.402 1.875.201-1.458.768-2.453 1.397-3.016-4.885-.569-10.02-2.505-10.02-11.149 0-2.462.856-4.475 2.264-6.052-.226-.57-.982-2.863.215-5.97 0 0 1.848-.606 6.05 2.313 1.755-.5 3.638-.751 5.507-.759 1.868.008 3.751.259 5.509.759 4.199-2.919 6.043-2.313 6.043-2.313 1.201 3.107.445 5.4.219 5.97 1.41 1.577 2.262 3.59 2.262 6.052 0 8.666-5.144 10.573-10.046 11.131.79.696 1.494 2.073 1.494 4.178 0 3.015-.027 5.447-.027 6.186 0 .605.396 1.307 1.513 1.087C47.703 50.969 54 42.52 54 32.557 54 20.099 44.149 10 31.998 10"/></svg>